<?xml version="1.0" standalone="no"?>
<!DOCTYPE svg PUBLIC "-//W3C//DTD SVG 20010904//EN"
 "http://www.w3.org/TR/2001/REC-SVG-20010904/DTD/svg10.dtd">
<svg version="1.0" xmlns="http://www.w3.org/2000/svg"
 width="512.000000pt" height="512.000000pt" viewBox="0 0 512.000000 512.000000"
 preserveAspectRatio="xMidYMid meet">

<g transform="translate(0.000000,512.000000) scale(0.100000,-0.100000)"
fill="#FFFFFF" stroke="none">
<path d="M1844 4885 c-273 -63 -555 -191 -776 -352 -77 -56 -248 -204 -248
-214 0 -17 380 -141 530 -173 23 -5 29 3 91 132 119 247 285 463 438 570 79
54 88 62 76 61 -6 0 -55 -11 -111 -24z"/>
<path d="M2684 4897 c128 -83 271 -227 365 -368 50 -75 186 -330 203 -380 8
-25 558 144 558 172 0 16 -198 178 -308 253 -235 159 -545 286 -802 329 -30 5
-32 4 -16 -6z"/>
<path d="M2215 4853 c-122 -24 -251 -100 -362 -214 -88 -90 -138 -156 -209
-276 -56 -94 -128 -243 -121 -249 7 -8 265 -43 382 -53 66 -6 170 -11 230 -13
l110 -3 3 399 c1 220 -1 403 -5 406 -5 4 -17 5 -28 3z"/>
<path d="M2390 4449 l0 -411 103 7 c277 17 598 53 615 69 8 9 -99 219 -159
311 -159 244 -328 380 -531 429 l-28 6 0 -411z"/>
<path d="M627 4097 c-147 -196 -240 -370 -315 -589 -64 -186 -111 -422 -112
-560 l0 -58 470 0 c369 0 470 3 470 13 1 62 23 336 35 432 26 203 90 489 149
661 3 7 -50 25 -135 48 -124 32 -337 104 -441 150 l-37 16 -84 -113z"/>
<path d="M3860 4184 c-72 -34 -351 -126 -465 -155 l-91 -23 38 -125 c43 -143
92 -370 110 -513 l12 -97 30 7 c17 4 65 5 106 3 87 -4 208 -4 335 1 85 3 94 1
157 -30 101 -50 138 -102 178 -257 l27 -100 70 -3 71 -3 -5 48 c-28 332 -84
545 -213 808 -37 77 -91 176 -120 220 -46 70 -178 246 -183 244 -1 0 -27 -11
-57 -25z"/>
<path d="M1467 3973 c-10 -19 -58 -176 -81 -268 -50 -201 -85 -448 -101 -712
l-6 -103 486 0 485 0 0 504 0 504 -107 6 c-255 15 -583 51 -655 72 -9 3 -18 1
-21 -3z"/>
<path d="M3139 3976 c-15 -15 -368 -54 -651 -72 l-98 -6 0 -504 0 -504 419 0
419 0 22 93 c12 50 36 118 52 149 35 66 35 84 -7 334 -49 292 -125 540 -156
510z"/>
<path d="M3519 3141 c-46 -15 -78 -42 -98 -84 -19 -39 -61 -200 -61 -232 0 -9
31 -21 93 -36 114 -27 381 -38 509 -20 69 10 195 38 206 46 8 7 -59 242 -76
264 -36 49 -80 66 -157 62 -123 -6 -268 -5 -330 2 -33 3 -72 3 -86 -2z"/>
<path d="M200 2697 c0 -198 77 -519 180 -747 78 -172 220 -398 321 -508 l30
-34 147 55 c124 47 327 108 434 131 l27 6 -25 73 c-45 129 -104 388 -129 562
-20 140 -45 416 -45 496 0 18 -13 19 -470 19 l-470 0 0 -53z"/>
<path d="M1284 2653 c19 -287 43 -464 92 -680 21 -95 90 -331 99 -341 1 -2 43
4 91 12 142 24 358 46 525 54 l154 7 0 520 0 520 -484 3 -483 2 6 -97z"/>
<path d="M2390 2227 l0 -524 158 -6 c86 -4 177 -9 202 -12 40 -5 49 -2 80 24
39 33 40 17 -19 184 -29 78 -31 91 -21 129 23 84 109 132 189 104 25 -8 44
-10 47 -4 8 12 11 10 -78 51 -93 43 -170 112 -194 173 -25 66 -16 152 22 207
38 54 132 117 226 151 40 15 82 31 93 36 12 5 -131 9 -342 9 l-363 1 0 -523z"/>
<path d="M3320 2662 c0 -17 -10 -22 -67 -32 -156 -27 -318 -95 -357 -151 -151
-216 679 -375 1343 -258 262 46 429 137 407 223 -16 64 -134 129 -315 172 -86
21 -123 34 -126 45 -5 16 -11 15 -77 -2 -123 -31 -247 -42 -426 -36 -152 5
-300 26 -364 52 -14 5 -18 2 -18 -13z"/>
<path d="M3167 2064 c3 -22 8 -42 12 -46 22 -24 574 -339 589 -336 10 2 148
79 305 172 l287 170 0 39 c0 36 -2 39 -23 34 -289 -73 -812 -73 -1149 -1 -26
6 -27 5 -21 -32z"/>
<path d="M2928 1995 c-4 -5 61 -191 107 -307 5 -13 -5 -23 -45 -43 -70 -36
-146 -108 -177 -169 -37 -74 -88 -218 -150 -431 -49 -166 -56 -201 -57 -280
-1 -74 3 -99 23 -143 58 -129 231 -231 544 -321 456 -131 840 -120 1301 39
219 76 332 143 393 234 73 108 73 198 -1 453 -131 451 -182 548 -327 615 -26
13 -48 29 -49 35 0 7 25 79 55 159 30 81 55 148 55 150 0 14 -68 -23 -424
-232 -220 -130 -404 -239 -408 -241 -6 -3 -708 406 -814 474 -11 7 -23 11 -26
8z"/>
<path d="M1995 1553 c-170 -13 -453 -49 -463 -58 -8 -7 112 -229 169 -315 75
-113 209 -252 298 -308 69 -45 149 -78 211 -88 l40 -7 0 392 0 391 -107 -2
c-60 -1 -126 -3 -148 -5z"/>
<path d="M2390 1170 l0 -390 23 0 c34 0 45 11 52 55 23 137 131 497 190 635
l33 77 -66 7 c-37 3 -104 6 -149 6 l-83 0 0 -390z"/>
<path d="M1247 1435 c-125 -33 -294 -88 -371 -120 l-38 -16 23 -26 c40 -42
199 -168 289 -227 110 -74 296 -168 423 -216 103 -38 349 -104 367 -98 5 1
-27 30 -72 63 -44 33 -110 92 -145 130 -105 114 -244 333 -311 493 -13 28 -26
52 -30 51 -4 0 -65 -16 -135 -34z"/>
</g>
</svg>
