<?xml version="1.0" standalone="no"?>
<!DOCTYPE svg PUBLIC "-//W3C//DTD SVG 20010904//EN"
 "http://www.w3.org/TR/2001/REC-SVG-20010904/DTD/svg10.dtd">
<svg version="1.0" xmlns="http://www.w3.org/2000/svg"
 width="200.000000pt" height="200.000000pt" viewBox="0 0 200.000000 200.000000"
 preserveAspectRatio="xMidYMid meet">

<g transform="translate(0.000000,200.000000) scale(0.100000,-0.100000)"
fill="#FFFFFF" stroke="none">
<path d="M976 1754 c-11 -28 -6 -100 7 -119 24 -32 37 -8 37 66 0 61 -2 69
-19 69 -10 0 -22 -7 -25 -16z"/>
<path d="M604 1656 c-8 -22 49 -111 74 -114 31 -5 28 22 -8 81 -30 46 -56 60
-66 33z"/>
<path d="M1330 1623 c-35 -56 -38 -83 -11 -83 23 0 85 95 77 116 -10 27 -36
14 -66 -33z"/>
<path d="M646 1454 c-8 -20 -8 -888 0 -908 5 -14 45 -16 348 -16 253 0 345 3
354 12 9 9 12 103 12 362 l0 350 -108 108 -108 108 -246 0 c-215 0 -247 -2
-252 -16z m454 -111 c0 -128 -4 -123 111 -123 l99 0 0 -320 0 -320 -310 0
-310 0 0 420 0 420 205 0 205 0 0 -77z m115 -23 l49 -50 -52 0 -52 0 0 50 c0
28 1 50 3 50 1 0 25 -22 52 -50z"/>
<path d="M821 1302 c-99 -50 -106 -190 -13 -245 40 -23 114 -24 148 -2 60 39
83 135 47 197 -21 35 -80 68 -120 68 -15 0 -43 -8 -62 -18z m118 -58 c53 -44
38 -130 -26 -151 -93 -32 -163 79 -94 148 37 37 79 38 120 3z"/>
<path d="M1026 1084 c-11 -29 7 -35 100 -32 81 3 89 5 89 23 0 18 -8 20 -91
23 -79 2 -93 0 -98 -14z"/>
<path d="M815 950 c-4 -6 -1 -17 5 -25 10 -12 47 -15 190 -15 98 0 185 3 194
6 9 3 16 15 16 25 0 18 -10 19 -199 19 -128 0 -202 -4 -206 -10z"/>
<path d="M815 850 c-4 -6 -1 -18 6 -26 10 -12 44 -14 203 -12 190 3 191 3 194
26 l3 22 -200 0 c-128 0 -202 -4 -206 -10z"/>
<path d="M816 751 c-3 -5 -3 -16 0 -25 6 -14 30 -16 203 -14 188 3 196 4 196
23 0 19 -8 20 -197 23 -114 1 -199 -2 -202 -7z"/>
<path d="M337 1393 c-16 -16 -4 -35 41 -63 55 -35 82 -38 82 -11 0 12 -18 30
-50 50 -52 32 -62 35 -73 24z"/>
<path d="M1590 1371 c-48 -29 -68 -71 -33 -71 31 1 115 59 111 78 -5 26 -28
24 -78 -7z"/>
<path d="M243 1023 c-18 -7 -16 -40 3 -47 29 -11 100 -6 120 9 19 15 19 15 0
30 -19 14 -96 20 -123 8z"/>
<path d="M1635 1017 c-32 -24 -8 -37 66 -37 61 0 69 2 69 19 0 10 -7 22 -16
25 -28 11 -100 6 -119 -7z"/>
<path d="M378 670 c-47 -30 -61 -56 -34 -66 22 -8 111 49 114 74 5 31 -22 28
-80 -8z"/>
<path d="M1540 681 c0 -23 95 -85 116 -77 27 10 14 36 -33 66 -56 35 -83 38
-83 11z"/>
<path d="M645 435 c-8 -14 -22 -37 -31 -51 -17 -29 -13 -54 11 -54 17 0 75 86
75 113 0 26 -37 21 -55 -8z"/>
<path d="M1300 443 c0 -27 58 -113 75 -113 28 0 27 26 -3 76 -30 52 -72 73
-72 37z"/>
<path d="M980 361 c-11 -22 -14 -90 -4 -115 8 -21 40 -21 48 0 16 43 0 134
-24 134 -5 0 -14 -9 -20 -19z"/>
</g>
</svg>