<?xml version="1.0" standalone="no"?>
<!DOCTYPE svg PUBLIC "-//W3C//DTD SVG 20010904//EN"
 "http://www.w3.org/TR/2001/REC-SVG-20010904/DTD/svg10.dtd">
<svg version="1.0" xmlns="http://www.w3.org/2000/svg"
 width="360.000000pt" height="360.000000pt" viewBox="0 0 360.000000 360.000000"
 preserveAspectRatio="xMidYMid meet">

<g transform="translate(0.000000,360.000000) scale(0.100000,-0.100000)"
fill="#007bff" stroke="none">
<path d="M2833 3186 c-219 -53 -383 -261 -383 -486 0 -270 230 -500 500 -500
270 0 500 230 500 500 0 274 -233 503 -508 499 -31 0 -80 -6 -109 -13z"/>
<path d="M317 2786 c-55 -20 -103 -61 -134 -114 l-28 -47 0 -1025 0 -1025 28
-47 c15 -26 42 -59 60 -72 77 -59 11 -56 1336 -56 990 1 1223 3 1254 14 55 20
103 61 134 114 l28 47 3 763 2 762 -58 0 c-75 0 -193 30 -271 69 -76 39 -185
141 -230 215 -64 107 -84 178 -85 303 l-1 113 -1000 0 c-809 -1 -1007 -3
-1038 -14z m217 -202 c39 -38 7 -84 -59 -84 -47 0 -75 19 -75 50 0 31 28 50
75 50 26 0 50 -6 59 -16z m200 0 c39 -38 7 -84 -59 -84 -47 0 -75 19 -75 50 0
31 28 50 75 50 26 0 50 -6 59 -16z m200 0 c39 -38 7 -84 -59 -84 -47 0 -75 19
-75 50 0 31 28 50 75 50 26 0 50 -6 59 -16z m1300 -200 c20 -20 20 -48 0 -68
-14 -14 -118 -16 -1000 -16 l-984 0 0 50 0 50 984 0 c882 0 986 -2 1000 -16z
m450 -400 c30 -29 13 -141 -35 -241 -29 -62 -130 -163 -192 -192 -65 -32 -142
-51 -204 -51 l-53 0 0 -409 c0 -359 -2 -412 -16 -425 -20 -20 -48 -20 -68 0
-13 12 -16 41 -16 148 l0 133 -132 6 c-100 3 -148 10 -192 26 -209 74 -352
256 -372 469 -10 105 -9 105 195 100 146 -4 174 -8 233 -30 88 -33 154 -77
217 -143 l51 -54 0 142 c0 151 11 211 51 293 52 104 168 196 288 230 70 19
226 18 245 -2z m-1514 -104 c26 -13 47 -34 60 -60 19 -37 20 -58 20 -322 0
-321 -3 -333 -76 -375 -38 -22 -48 -23 -324 -23 -323 0 -335 2 -377 76 -22 38
-23 48 -23 322 0 264 1 285 20 322 12 24 35 47 58 59 34 19 58 20 320 21 264
0 285 -1 322 -20z"/>
<path d="M566 1784 c-24 -23 -24 -545 0 -568 23 -24 545 -24 568 0 24 23 24
545 0 568 -13 14 -53 16 -284 16 -231 0 -271 -2 -284 -16z"/>
</g>
</svg>