<?xml version="1.0" standalone="no"?>
<!DOCTYPE svg PUBLIC "-//W3C//DTD SVG 20010904//EN"
 "http://www.w3.org/TR/2001/REC-SVG-20010904/DTD/svg10.dtd">
<svg version="1.0" xmlns="http://www.w3.org/2000/svg"
 width="360.000000pt" height="360.000000pt" viewBox="0 0 360.000000 360.000000"
 preserveAspectRatio="xMidYMid meet">

<g transform="translate(0.000000,360.000000) scale(0.100000,-0.100000)"
fill="#FFFFFF" stroke="#FFFFFF" stroke-width="80">
<path d="M2833 3186 c-219 -53 -383 -261 -383 -486 0 -270 230 -500 500 -500
270 0 500 230 500 500 0 131 -53 254 -149 351 -125 125 -300 175 -468 135z
m281 -124 c91 -42 149 -100 194 -190 35 -72 37 -81 37 -172 0 -91 -2 -100 -37
-172 -45 -91 -103 -147 -196 -191 -61 -29 -76 -32 -162 -32 -86 0 -101 3 -162
32 -93 44 -151 100 -196 191 -35 72 -37 81 -37 171 0 87 3 102 32 163 40 85
97 147 172 186 78 42 122 52 213 48 61 -3 92 -11 142 -34z"/>
<path d="M316 2784 c-57 -21 -102 -58 -133 -112 l-28 -47 0 -1025 0 -1025 28
-47 c15 -26 42 -59 60 -72 77 -59 12 -56 1332 -56 1320 0 1255 -3 1332 56 18
13 45 46 60 72 l28 47 3 747 c2 672 1 748 -13 762 -21 20 -49 20 -69 0 -14
-14 -16 -95 -16 -740 0 -707 -1 -726 -20 -764 -13 -26 -34 -47 -60 -60 -39
-20 -56 -20 -1245 -20 -1189 0 -1206 0 -1245 20 -26 13 -47 34 -60 60 -20 38
-20 57 -20 880 l0 840 1084 0 c973 0 1086 2 1100 16 20 20 20 48 0 68 -14 14
-127 16 -1100 16 l-1084 0 0 90 c0 112 20 159 80 190 38 20 57 20 1013 20 931
0 975 1 990 18 21 23 22 46 1 66 -14 14 -117 16 -997 15 -826 0 -988 -3 -1021
-15z"/>
<path d="M416 2584 c-39 -38 -7 -84 59 -84 47 0 75 19 75 50 0 31 -28 50 -75
50 -26 0 -50 -6 -59 -16z"/>
<path d="M616 2584 c-39 -38 -7 -84 59 -84 47 0 75 19 75 50 0 31 -28 50 -75
50 -26 0 -50 -6 -59 -16z"/>
<path d="M816 2584 c-39 -38 -7 -84 59 -84 47 0 75 19 75 50 0 31 -28 50 -75
50 -26 0 -50 -6 -59 -16z"/>
<path d="M2438 1985 c-82 -22 -141 -57 -203 -119 -106 -107 -135 -193 -135
-403 l0 -142 -51 54 c-63 66 -129 110 -217 143 -59 22 -87 26 -233 30 -204 5
-205 5 -195 -100 20 -213 163 -395 372 -469 44 -16 92 -23 192 -26 l132 -6 0
-133 c0 -107 3 -136 16 -148 20 -20 48 -20 68 0 14 13 16 66 16 425 l0 409 53
0 c62 0 139 19 204 51 62 29 163 130 192 192 48 100 65 212 35 241 -19 20
-175 21 -246 1z m148 -130 c-44 -146 -165 -242 -317 -253 l-68 -5 11 39 c42
156 177 261 335 263 l52 1 -13 -45z m-829 -419 c176 -47 292 -170 337 -358 l6
-28 -94 0 c-113 0 -182 13 -254 48 -124 60 -220 185 -245 320 l-6 32 102 0
c56 0 126 -7 154 -14z"/>
<path d="M530 1881 c-19 -10 -45 -36 -57 -57 -22 -38 -23 -47 -23 -324 0 -277
1 -286 23 -324 42 -73 54 -76 375 -76 314 0 331 3 375 64 21 30 22 39 25 323
3 278 2 294 -18 332 -13 27 -34 48 -60 61 -37 19 -58 20 -322 20 -257 0 -287
-2 -318 -19z m604 -97 c24 -23 24 -545 0 -568 -23 -24 -545 -24 -568 0 -24 23
-24 545 0 568 13 14 53 16 284 16 231 0 271 -2 284 -16z"/>
</g>
</svg>
