<?xml version="1.0" encoding="utf-8"?>
<svg
	version="1.1"
	xmlns="http://www.w3.org/2000/svg"
	xmlns:xlink="http://www.w3.org/1999/xlink"
	x="0%" y="0%"
	width="100%" height="100%"
	viewBox="0 0 24.0 24.0"
	enable-background="new 0 0 24.0 24.0"
	xml:space="preserve">
	<path
		fill="#FFFFFF"
		stroke="#000000"
		fill-opacity="1.000"
		stroke-opacity="1.000"
		fill-rule="nonzero"
		stroke-width="0.24"
		stroke-linejoin="miter"
		stroke-linecap="square"
		d="M8.23,2.08L15.56,19.50A2.92 2.92 0 0 1 14.01,23.32L14.01,23.32A2.92 2.92 0 0 1 10.19,21.76L2.86,4.35A2.92 2.92 0 0 1 4.41,0.53L4.41,0.53A2.92 2.92 0 0 1 8.23,2.08z"/>
	<path
		fill="#FFFFFF"
		stroke="#000000"
		fill-opacity="1.000"
		stroke-opacity="1.000"
		fill-rule="nonzero"
		stroke-width="0.24"
		stroke-linejoin="miter"
		stroke-linecap="square"
		d="M25.96,34.89L38.96,34.89A2.75 2.75 0 0 1 41.71,37.64L41.71,37.64A2.75 2.75 0 0 1 38.96,40.39L25.96,40.39A2.75 2.75 0 0 1 23.21,37.64L23.21,37.64A2.75 2.75 0 0 1 25.96,34.89z"/>
	<path
		fill="#FFFFFF"
		stroke="#000000"
		fill-opacity="1.000"
		stroke-opacity="1.000"
		fill-rule="nonzero"
		stroke-width="0.24"
		stroke-linejoin="miter"
		stroke-linecap="square"
		d="M32.55,-11.81L32.55,-11.81A2.89 2.89 0 0 1 36.22,-10.04L39.47,-0.71A2.89 2.89 0 0 1 37.69,2.97L37.69,2.97A2.89 2.89 0 0 1 34.02,1.19L30.77,-8.14A2.89 2.89 0 0 1 32.55,-11.81z"/>
	<path
		fill="#FFFFFF"
		stroke="#000000"
		fill-opacity="1.000"
		stroke-opacity="1.000"
		fill-rule="nonzero"
		stroke-width="0.24"
		stroke-linejoin="miter"
		stroke-linecap="square"
		d="M25.90,-32.78L25.90,-32.78A4.20 4.20 0 0 1 27.93,-27.20L20.82,-11.88A4.20 4.20 0 0 1 15.23,-9.84L15.23,-9.84A4.20 4.20 0 0 1 13.20,-15.42L20.31,-30.74A4.20 4.20 0 0 1 25.90,-32.78z"/>
	<path
		fill="#FFFFFF"
		stroke="#000000"
		fill-opacity="1.000"
		stroke-opacity="1.000"
		fill-rule="nonzero"
		stroke-width="0.24"
		stroke-linejoin="miter"
		stroke-linecap="square"
		d="M5.74,8.77L20.24,8.77A3.42 3.42 0 0 1 23.66,12.18L23.66,12.18A3.42 3.42 0 0 1 20.24,15.60L5.74,15.60A3.42 3.42 0 0 1 2.32,12.18L2.32,12.18A3.42 3.42 0 0 1 5.74,8.77z"/>
	<path
		fill="#FFFFFF"
		stroke="#000000"
		fill-opacity="1.000"
		stroke-opacity="1.000"
		fill-rule="nonzero"
		stroke-width="0.24"
		stroke-linejoin="miter"
		stroke-linecap="square"
		d="M20.76,1.11L20.76,1.11A3.27 3.27 0 0 1 22.55,5.38L15.93,21.47A3.27 3.27 0 0 1 11.66,23.26L11.66,23.26A3.27 3.27 0 0 1 9.88,18.98L16.49,2.90A3.27 3.27 0 0 1 20.76,1.11z"/>
</svg>