<?xml version="1.0" encoding="UTF-8" standalone="no"?>
<svg xmlns="http://www.w3.org/2000/svg" viewBox="0 0 24 24" style="width: 24px; height: 24px;">
  <defs>
    <linearGradient id="gradient1" x1="0%" y1="0%" x2="100%" y2="100%">
      <stop offset="0%" style="stop-color:#8b5cf6" />
      <stop offset="50%" style="stop-color:#3b82f6" />
      <stop offset="100%" style="stop-color:#06b6d4" />
    </linearGradient>
  </defs>
  <g>
    <path fill="none" stroke="url(#gradient1)" stroke-width="2" stroke-linecap="round" stroke-linejoin="round" d="M8.23,2.08L15.56,19.50A2.92 2.92 0 0 1 14.01,23.32L14.01,23.32A2.92 2.92 0 0 1 10.19,21.76L2.86,4.35A2.92 2.92 0 0 1 4.41,0.53L4.41,0.53A2.92 2.92 0 0 1 8.23,2.08z"/>
    <path fill="white" stroke="url(#gradient1)" stroke-width="2" stroke-linecap="round" stroke-linejoin="round" d="M5.74,8.77L20.24,8.77A3.42 3.42 0 0 1 23.66,12.18L23.66,12.18A3.42 3.42 0 0 1 20.24,15.60L5.74,15.60A3.42 3.42 0 0 1 2.32,12.18L2.32,12.18A3.42 3.42 0 0 1 5.74,8.77z"/>
  </g>
  <g>
    <path fill="white" stroke="url(#gradient1)" stroke-width="2" stroke-linecap="round" stroke-linejoin="round" d="M20.76,1.11L20.76,1.11A3.27 3.27 0 0 1 22.55,5.38L15.93,21.47A3.27 3.27 0 0 1 11.66,23.26L11.66,23.26A3.27 3.27 0 0 1 9.88,18.98L16.49,2.90A3.27 3.27 0 0 1 20.76,1.11z"/>
  </g>
</svg>
