<?xml version="1.0" standalone="no"?>
<!DOCTYPE svg PUBLIC "-//W3C//DTD SVG 20010904//EN"
 "http://www.w3.org/TR/2001/REC-SVG-20010904/DTD/svg10.dtd">
<svg version="1.0" xmlns="http://www.w3.org/2000/svg"
 width="1024.000000pt" height="1024.000000pt" viewBox="0 0 1024.000000 1024.000000"
 preserveAspectRatio="xMidYMid meet">
<metadata>
Created by potrace 1.14, written by Peter Selinger 2001-2017
</metadata>
<g transform="translate(0.000000,1024.000000) scale(0.100000,-0.100000)"
fill="#000000" stroke="none">
<path d="M7601 8577 c-24 -29 -79 -90 -121 -137 -42 -47 -121 -134 -175 -195
-53 -60 -116 -130 -139 -155 -22 -25 -72 -81 -111 -125 -38 -43 -77 -85 -86
-94 -8 -9 -71 -79 -139 -156 -69 -77 -143 -160 -165 -184 -50 -54 -45 -49
-135 -151 -41 -47 -77 -87 -80 -90 -3 -3 -84 -93 -180 -200 -96 -107 -188
-211 -206 -230 -17 -19 -55 -62 -85 -95 -74 -83 -180 -202 -345 -385 -76 -85
-193 -216 -259 -290 -66 -74 -127 -141 -135 -150 -18 -19 -141 -156 -167 -187
-10 -12 -52 -59 -93 -104 -138 -154 -175 -194 -245 -273 -38 -43 -79 -88 -90
-100 -11 -12 -76 -84 -145 -161 -68 -77 -140 -158 -160 -179 -48 -53 -41 -45
-175 -196 -66 -74 -122 -137 -125 -140 -3 -3 -45 -50 -94 -105 -49 -55 -116
-130 -150 -166 -34 -37 -72 -79 -85 -95 -35 -42 -264 -297 -276 -309 -6 -5
-45 -48 -85 -95 -41 -47 -88 -99 -105 -116 -16 -18 -41 -45 -54 -60 -14 -16
-59 -67 -100 -114 -42 -46 -92 -102 -111 -124 -19 -21 -44 -49 -55 -60 -11
-12 -54 -59 -95 -106 -84 -94 -140 -157 -156 -174 -10 -11 -339 -379 -384
-430 -14 -16 -30 -34 -35 -40 -13 -13 -268 -297 -369 -410 -39 -44 -89 -100
-112 -125 -22 -25 -67 -75 -99 -111 -32 -36 -76 -85 -99 -111 -23 -25 -73 -81
-112 -125 -138 -154 -268 -299 -279 -310 -9 -9 -115 -129 -155 -174 -33 -38
-156 -175 -170 -190 -8 -9 -69 -76 -135 -150 -66 -74 -122 -137 -125 -140 -3
-3 -41 -45 -85 -95 -44 -49 -98 -110 -121 -135 -86 -94 -116 -130 -110 -130 3
0 39 9 80 20 42 12 83 23 93 25 10 2 180 45 378 95 198 51 367 93 375 95 15 3
408 103 1140 290 206 53 384 98 395 100 33 7 648 163 835 211 96 25 182 47
190 49 8 2 89 22 180 45 91 23 172 43 180 45 8 2 69 18 135 35 122 32 140 37
174 44 10 2 101 25 202 51 101 26 191 48 199 50 8 2 96 25 195 50 99 25 187
48 195 50 8 2 80 20 160 40 79 20 152 34 162 31 15 -3 43 28 126 141 217 294
376 510 421 571 25 35 55 75 66 90 11 14 188 254 393 532 205 278 380 515 390
527 9 12 24 31 32 43 17 25 82 113 110 150 11 14 61 82 112 152 51 69 140 190
198 268 58 78 134 181 170 230 36 48 106 143 155 210 50 67 106 143 125 170
19 27 161 219 315 427 457 618 874 1182 939 1272 34 46 122 165 196 266 74
100 162 219 195 265 33 45 66 88 73 96 6 7 12 17 12 21 0 12 -51 73 -60 73 -9
0 -206 -93 -705 -335 -88 -42 -207 -100 -265 -127 -58 -28 -163 -79 -235 -113
-71 -35 -186 -90 -255 -123 -69 -33 -201 -97 -295 -142 -93 -45 -204 -98 -245
-118 -41 -19 -158 -75 -260 -124 -102 -49 -214 -104 -250 -120 -36 -17 -68
-33 -72 -35 -10 -5 42 173 119 407 8 25 48 153 90 285 41 132 83 267 94 300
11 33 22 67 24 75 2 8 19 65 38 125 19 61 58 182 86 270 158 504 275 877 291
930 10 33 28 89 39 125 12 36 21 68 21 72 0 10 -65 48 -81 47 -8 0 -34 -24
-58 -52z"/>
<path d="M4130 7260 c-19 -5 -100 -22 -180 -39 -79 -17 -154 -34 -165 -36 -62
-14 -214 -46 -240 -51 -16 -2 -43 -9 -60 -14 -30 -9 -112 -23 -117 -20 -2 1
-16 -3 -31 -9 -15 -6 -42 -13 -60 -17 -26 -4 -752 -159 -1077 -229 -41 -9 -85
-18 -98 -21 -13 -2 -76 -16 -140 -30 -64 -14 -128 -28 -142 -30 -14 -3 -45
-10 -70 -15 -25 -6 -56 -13 -70 -15 -50 -9 -446 -95 -480 -104 -19 -5 -53 -12
-75 -16 -22 -3 -43 -9 -47 -13 -4 -3 11 -31 34 -61 23 -30 169 -230 326 -445
157 -214 309 -421 337 -460 29 -38 141 -191 249 -340 108 -148 204 -280 214
-293 9 -12 27 -37 40 -55 13 -17 54 -74 92 -125 38 -51 70 -98 72 -104 2 -6
10 -8 16 -4 7 4 117 163 244 354 127 191 381 570 563 842 656 979 910 1361
903 1359 -2 -1 -19 -5 -38 -9z"/>
</g>
</svg>
