<?xml version="1.0" standalone="no"?>
<!DOCTYPE svg PUBLIC "-//W3C//DTD SVG 20010904//EN"
 "http://www.w3.org/TR/2001/REC-SVG-20010904/DTD/svg10.dtd">
<svg version="1.0" xmlns="http://www.w3.org/2000/svg"
 width="512.000000pt" height="512.000000pt" viewBox="0 0 512.000000 512.000000"
 preserveAspectRatio="xMidYMid meet">

<g transform="translate(0.000000,512.000000) scale(0.100000,-0.100000)"
fill="#000000" stroke="none">
<path d="M3606 4770 c-157 -20 -327 -70 -461 -137 -230 -115 -450 -322 -570
-538 l-37 -66 -53 77 c-164 239 -413 424 -697 518 -140 46 -265 66 -423 66
-230 0 -429 -49 -634 -156 -136 -70 -224 -135 -336 -248 -190 -192 -318 -435
-372 -704 -26 -131 -24 -394 5 -529 102 -477 446 -863 906 -1019 38 -13 117
-33 175 -44 57 -11 107 -22 109 -24 2 -2 -2 -33 -8 -67 -17 -93 -15 -317 5
-429 98 -566 552 -1020 1114 -1114 122 -21 340 -21 462 0 564 94 1015 546
1114 1114 28 161 19 424 -21 565 -5 19 2 21 83 32 273 38 537 174 749 387 199
199 317 417 376 689 31 147 31 399 0 544 -118 543 -531 953 -1073 1063 -113
23 -312 33 -413 20z m374 -186 c354 -67 662 -295 831 -617 203 -388 181 -844
-61 -1209 -185 -281 -474 -470 -800 -523 -52 -8 -102 -15 -110 -15 -12 0 -47
63 -88 160 -1 4 37 10 85 13 157 11 313 61 458 145 110 64 283 237 347 347 92
159 135 302 145 481 26 491 -292 922 -775 1051 -84 23 -117 26 -252 26 -136 0
-167 -3 -254 -26 -422 -112 -720 -462 -772 -902 l-7 -60 -18 105 c-10 58 -30
138 -44 179 -14 41 -25 82 -25 92 0 32 100 218 160 297 179 238 447 405 734
457 45 8 97 16 116 19 60 7 246 -4 330 -20z m-2444 -75 c434 -60 820 -379 959
-793 58 -172 78 -389 53 -556 l-13 -85 -83 -9 c-46 -4 -86 -6 -89 -3 -3 4 1
37 8 74 22 108 17 320 -9 426 -93 375 -375 660 -750 758 -122 33 -311 36 -442
9 -198 -40 -363 -126 -503 -259 -146 -140 -243 -303 -293 -496 -36 -136 -38
-336 -6 -467 66 -269 215 -486 434 -631 141 -94 302 -152 451 -164 66 -5 77
-9 72 -22 -55 -145 -58 -151 -84 -151 -14 0 -66 9 -116 19 -471 99 -826 456
-931 936 -24 111 -24 350 0 463 105 492 482 859 971 946 98 17 267 20 371 5z
m2384 -261 c216 -41 416 -174 539 -358 105 -157 146 -296 144 -490 -1 -140
-25 -246 -84 -363 -155 -307 -466 -492 -799 -474 l-95 5 -105 103 c-58 57
-139 127 -181 156 -75 52 -222 129 -291 154 -31 11 -41 22 -67 79 -52 113 -73
210 -74 345 -1 66 5 147 12 180 65 297 283 540 568 635 146 48 283 57 433 28z
m-2420 -79 c354 -56 643 -341 705 -694 25 -143 15 -280 -30 -416 -15 -44 -19
-48 -78 -70 -236 -86 -458 -246 -603 -435 -65 -84 -80 -89 -219 -73 -358 40
-651 296 -736 644 -30 122 -30 295 0 410 80 303 319 543 616 618 108 28 236
34 345 16z m1279 -1057 l19 -63 -41 6 c-23 4 -44 9 -46 11 -2 1 2 40 8 85 6
45 11 103 12 128 1 42 2 39 14 -29 8 -41 23 -103 34 -138z m41 -241 c412 -94
744 -396 875 -796 57 -176 73 -409 40 -584 -92 -483 -447 -847 -925 -951 -517
-113 -1056 137 -1300 602 -99 188 -140 355 -140 563 0 326 125 624 357 852
171 168 400 287 623 323 41 6 82 13 90 15 42 11 302 -6 380 -24z"/>
<path d="M3670 3882 c0 -37 -1 -37 -52 -50 -170 -40 -253 -218 -173 -372 21
-41 98 -105 143 -118 22 -7 90 -12 151 -12 127 0 166 -13 178 -58 10 -38 4
-63 -20 -89 -19 -21 -29 -23 -142 -23 -114 0 -123 1 -143 23 -12 13 -22 31
-22 40 0 15 -12 17 -90 17 l-90 0 6 -27 c15 -69 29 -99 68 -141 46 -50 105
-81 154 -82 31 0 32 -1 32 -45 l0 -45 85 0 85 0 0 45 c0 44 1 45 33 45 44 1
105 30 146 71 135 136 78 370 -103 424 -31 9 -92 15 -161 15 -97 0 -116 3
-137 20 -32 24 -39 59 -22 99 17 41 47 51 159 51 115 0 141 -9 161 -55 l15
-36 82 3 82 3 -3 35 c-6 53 -40 117 -84 155 -39 33 -113 65 -150 65 -14 0 -18
8 -18 40 l0 40 -85 0 -85 0 0 -38z"/>
<path d="M1110 3795 c0 -37 -3 -45 -18 -45 -10 0 -29 -12 -43 -26 l-24 -26 -3
-347 c-3 -390 0 -415 55 -441 28 -13 33 -20 33 -52 l0 -38 85 0 85 0 0 40 0
40 45 0 45 0 0 -40 0 -40 85 0 85 0 0 48 c1 45 3 48 45 74 120 73 158 237 80
351 -21 32 -22 35 -5 58 52 72 60 180 20 260 -24 47 -86 108 -117 115 -20 6
-23 12 -23 60 l0 54 -84 0 -85 0 -3 -42 c-3 -43 -3 -43 -45 -46 l-43 -3 0 45
0 46 -85 0 -85 0 0 -45z m397 -237 c11 -13 24 -33 27 -45 9 -30 -19 -81 -50
-93 -14 -6 -84 -10 -155 -10 l-129 0 0 85 0 85 143 0 c136 0 145 -1 164 -22z
m-1 -342 c36 -30 39 -86 6 -119 -21 -20 -33 -22 -167 -25 l-145 -3 0 85 0 86
139 0 c133 0 141 -1 167 -24z"/>
<path d="M2416 2720 c-340 -54 -623 -261 -771 -565 -74 -151 -95 -238 -102
-410 -4 -115 -1 -157 15 -235 40 -192 127 -362 256 -498 96 -101 181 -164 301
-223 282 -137 598 -139 884 -4 270 128 456 349 548 650 25 84 27 102 27 270 0
153 -3 192 -21 257 -103 369 -376 640 -740 734 -110 29 -296 40 -397 24z m379
-195 c369 -108 615 -434 615 -816 0 -441 -316 -796 -758 -849 -297 -36 -609
104 -787 355 -55 78 -86 140 -121 245 -26 78 -28 98 -28 240 -1 180 11 234 79
377 118 244 345 417 613 468 113 21 274 13 387 -20z"/>
<path d="M2523 2380 c-12 -5 -27 -18 -33 -30 -17 -33 -270 -880 -270 -906 0
-14 56 -98 140 -211 152 -204 175 -224 230 -201 39 17 310 378 310 414 0 23
-222 778 -256 872 -24 64 -64 85 -121 62z m90 -547 c26 -87 47 -161 47 -165 0
-4 -22 5 -50 19 l-50 26 -51 -26 c-33 -18 -49 -22 -47 -13 15 61 94 316 99
316 3 0 27 -71 52 -157z m72 -410 c-7 -19 -117 -163 -124 -163 -4 0 -24 24
-46 53 -21 28 -49 66 -62 84 l-24 32 67 45 67 44 63 -41 c35 -23 62 -47 59
-54z"/>
</g>
</svg>
