<?xml version="1.0" standalone="no"?>
<!DOCTYPE svg PUBLIC "-//W3C//DTD SVG 20010904//EN"
 "http://www.w3.org/TR/2001/REC-SVG-20010904/DTD/svg10.dtd">
<svg version="1.0" xmlns="http://www.w3.org/2000/svg"
 width="255.000000pt" height="266.000000pt" viewBox="0 0 255.000000 266.000000"
 preserveAspectRatio="xMidYMid meet">

<g transform="translate(0.000000,266.000000) scale(0.100000,-0.100000)"
fill="#000000" stroke="none">
<path d="M1029 2216 c-7 -16 -27 -34 -43 -41 l-29 -12 29 -14 c16 -8 35 -27
43 -43 l14 -29 12 29 c7 16 25 36 41 43 21 10 25 15 14 19 -23 7 -51 35 -60
57 -7 19 -9 18 -21 -9z"/>
<path d="M1320 2116 c-89 -27 -258 -95 -340 -136 -69 -35 -93 -62 -110 -127
-7 -26 -16 -51 -19 -55 -4 -4 -26 -1 -49 7 -30 11 -48 12 -62 5 -19 -10 -21
-21 -36 -180 -9 -92 -44 -220 -84 -305 -20 -44 -78 -138 -129 -210 -70 -99
-91 -137 -91 -162 0 -26 33 -83 144 -252 88 -134 152 -222 165 -226 11 -3 94
-1 183 5 90 6 378 26 641 44 437 30 480 35 498 53 42 41 33 127 -15 159 -23
15 -41 15 -183 5 -87 -7 -169 -14 -183 -17 -14 -3 -22 -3 -18 1 3 4 120 42
259 85 187 58 258 84 271 100 45 55 1 160 -65 160 -18 0 -133 -32 -257 -70
-123 -38 -226 -68 -227 -66 -2 2 115 72 259 156 145 84 273 163 286 177 34 37
30 87 -12 129 -20 20 -44 34 -59 34 -14 0 -124 -58 -248 -131 -123 -72 -232
-135 -243 -141 -23 -12 -23 -13 66 117 65 96 71 108 112 259 l44 159 -25 25
c-22 22 -31 24 -87 20 l-61 -5 -25 80 c-33 110 -113 269 -150 301 -38 31 -53
32 -150 2z m113 -74 c29 -32 105 -204 132 -299 38 -132 36 -140 -55 -185 -41
-20 -125 -54 -186 -74 l-110 -36 -40 20 c-21 11 -87 54 -146 96 -116 82 -118
85 -106 176 15 118 25 138 87 169 118 60 349 150 387 151 11 0 28 -8 37 -18z
m-445 -539 c125 -90 185 -123 224 -123 40 0 227 59 290 91 21 11 38 17 38 14
0 -39 -164 -256 -233 -309 -36 -28 -131 -56 -188 -56 -140 0 -239 102 -239
247 0 45 28 183 37 183 2 0 34 -21 71 -47z"/>
<path d="M1305 1970 c-38 -17 -104 -40 -145 -51 -41 -12 -88 -28 -103 -36 -24
-12 -27 -16 -15 -30 14 -18 223 -123 243 -123 17 0 25 23 25 74 0 38 6 49 55
101 87 91 63 117 -60 65z"/>
<path d="M1402 1803 c-22 -56 -32 -110 -32 -171 0 -79 13 -86 89 -46 55 29 56
30 54 71 -3 68 -56 173 -88 173 -7 0 -17 -12 -23 -27z"/>
<path d="M980 1753 c0 -10 16 -41 36 -70 39 -56 68 -70 127 -58 63 13 68 16
65 38 -2 16 -25 33 -88 64 -92 46 -140 55 -140 26z"/>
<path d="M1718 2049 c-16 -37 -61 -79 -84 -79 -8 0 -14 -4 -14 -10 0 -5 7 -10
16 -10 9 0 31 -15 50 -34 19 -19 34 -41 34 -50 0 -9 5 -16 10 -16 6 0 10 7 10
16 0 9 15 31 34 50 19 19 41 34 50 34 9 0 16 5 16 10 0 6 -6 10 -14 10 -25 0
-75 50 -84 83 l-9 32 -15 -36z"/>
</g>
</svg>
