<?xml version="1.0" standalone="no"?>
<!DOCTYPE svg PUBLIC "-//W3C//DTD SVG 20010904//EN"
 "http://www.w3.org/TR/2001/REC-SVG-20010904/DTD/svg10.dtd">
<svg version="1.0" xmlns="http://www.w3.org/2000/svg"
 width="833.000000pt" height="833.000000pt" viewBox="0 0 833.000000 833.000000"
 preserveAspectRatio="xMidYMid meet">

<g transform="translate(0.000000,833.000000) scale(0.100000,-0.100000)"
fill="#000000" stroke="none">
<path d="M4849 5050 c-47 -10 -111 -25 -142 -34 -127 -37 -370 -180 -542 -319
-165 -134 -401 -403 -426 -488 -23 -75 55 -193 259 -391 208 -201 431 -366
579 -428 275 -115 651 -111 932 9 219 93 637 454 782 676 44 67 47 93 20 165
-85 225 -570 632 -899 756 -191 71 -391 91 -563 54z m424 -274 c169 -50 315
-139 524 -318 103 -88 207 -198 230 -242 13 -26 14 -33 0 -61 -35 -74 -282
-304 -471 -439 -187 -134 -385 -188 -598 -165 -178 20 -379 106 -552 236 -83
63 -416 368 -416 382 0 15 332 341 400 393 159 120 322 200 480 234 104 22
294 12 403 -20z"/>
<path d="M4899 4622 c-88 -30 -155 -71 -214 -133 -134 -140 -159 -325 -71
-505 90 -180 281 -286 465 -256 196 33 361 193 390 380 29 187 -87 400 -265
489 -63 31 -84 36 -161 39 -67 3 -101 0 -144 -14z m202 -240 c56 -36 106 -93
131 -149 16 -37 17 -49 8 -79 -29 -86 -154 -194 -226 -194 -61 0 -163 87 -206
176 -19 37 -20 48 -10 82 15 48 82 126 141 164 58 37 104 37 162 0z"/>
<path d="M2314 5020 c-62 -5 -121 -11 -133 -15 -44 -14 -66 -99 -36 -142 30
-43 70 -45 868 -50 l757 -5 0 105 0 104 -427 6 c-509 8 -876 7 -1029 -3z"/>
<path d="M2280 4520 c-100 -10 -117 -16 -135 -50 -33 -63 -11 -121 53 -141 26
-8 203 -13 595 -16 l557 -5 0 104 0 105 -202 6 c-254 9 -768 7 -868 -3z"/>
<path d="M2280 4020 c-100 -10 -117 -16 -135 -50 -33 -63 -11 -121 53 -141 26
-8 203 -13 595 -16 l557 -5 0 104 0 105 -197 6 c-246 9 -773 7 -873 -3z"/>
<path d="M2305 3520 c-55 -4 -110 -10 -123 -14 -45 -15 -67 -100 -37 -143 30
-42 72 -45 828 -50 l717 -5 0 104 0 105 -367 6 c-439 8 -880 7 -1018 -3z"/>
</g>
</svg>
