<?xml version="1.0" standalone="no"?>
<!DOCTYPE svg PUBLIC "-//W3C//DTD SVG 20010904//EN"
 "http://www.w3.org/TR/2001/REC-SVG-20010904/DTD/svg10.dtd">
<svg version="1.0" xmlns="http://www.w3.org/2000/svg"
 width="200.000000pt" height="200.000000pt" viewBox="0 0 200.000000 200.000000"
 preserveAspectRatio="xMidYMid meet">

<g transform="translate(0.000000,200.000000) scale(0.100000,-0.100000)"
fill="#000000" stroke="none">
<path d="M1143 1208 c-59 -13 -159 -82 -210 -146 -41 -51 -43 -54 -29 -81 22
-41 127 -135 183 -162 72 -36 178 -34 253 5 63 33 180 147 180 175 0 58 -157
190 -250 210 -58 13 -69 12 -127 -1z m168 -79 c48 -24 139 -106 139 -124 0
-20 -106 -114 -152 -135 -92 -42 -191 -14 -287 79 l-54 52 49 51 c102 104 203
129 305 77z"/>
<path d="M1163 1105 c-75 -33 -91 -121 -33 -180 82 -82 221 11 176 118 -25 60
-87 87 -143 62z m77 -65 c11 -11 20 -27 20 -35 0 -8 -9 -24 -20 -35 -11 -11
-27 -20 -35 -20 -8 0 -24 9 -35 20 -11 11 -20 27 -20 35 0 8 9 24 20 35 11 11
27 20 35 20 8 0 24 -9 35 -20z"/>
<path d="M522 1201 c-8 -4 -12 -17 -10 -27 3 -18 15 -19 198 -19 l195 0 0 25
0 25 -185 2 c-102 2 -191 -1 -198 -6z"/>
<path d="M522 1081 c-8 -4 -12 -17 -10 -27 3 -18 14 -19 148 -19 l145 0 0 25
0 25 -135 3 c-74 1 -141 -2 -148 -7z"/>
<path d="M522 961 c-8 -4 -12 -17 -10 -27 3 -18 14 -19 148 -19 l145 0 0 25 0
25 -135 3 c-74 1 -141 -2 -148 -7z"/>
<path d="M522 841 c-8 -4 -12 -17 -10 -27 3 -18 15 -19 188 -19 l185 0 0 25 0
25 -175 2 c-96 2 -181 -1 -188 -6z"/>
</g>
</svg>
