<?xml version="1.0" standalone="no"?>
<!DOCTYPE svg PUBLIC "-//W3C//DTD SVG 20010904//EN"
 "http://www.w3.org/TR/2001/REC-SVG-20010904/DTD/svg10.dtd">
<svg version="1.0" xmlns="http://www.w3.org/2000/svg"
 width="360.000000pt" height="360.000000pt" viewBox="0 0 360.000000 360.000000"
 preserveAspectRatio="xMidYMid meet">

<g transform="translate(0.000000,360.000000) scale(0.100000,-0.100000)"
fill="#000000" stroke="none">
<path d="M280 3320 c-20 -20 -20 -39 -20 -1520 0 -1487 0 -1500 20 -1520 20
-20 33 -20 1520 -20 1492 0 1500 0 1520 20 16 16 18 25 11 39 -15 28 -32 31
-152 31 l-109 0 -2 1117 -3 1118 -180 0 -180 0 -3 -1117 -2 -1118 -85 0 -85 0
0 838 c0 638 -3 841 -12 850 -8 8 -63 12 -180 12 -155 0 -168 -1 -178 -19 -7
-13 -10 -297 -10 -850 l0 -831 -80 0 -80 0 0 393 c0 292 -3 396 -12 405 -17
17 -339 17 -356 0 -9 -9 -12 -113 -12 -405 l0 -393 -80 0 -80 0 0 703 c0 669
-1 705 -18 720 -16 14 -43 17 -171 17 -86 0 -161 -5 -172 -10 -19 -10 -19 -29
-19 -721 l0 -710 -82 3 -83 3 -5 540 -5 540 -180 0 -180 0 -3 -542 -2 -543
-90 0 -90 0 0 1471 c0 933 -4 1477 -10 1488 -15 29 -38 33 -60 11z m2710
-1890 l0 -1080 -105 0 -105 0 0 1080 0 1080 105 0 105 0 0 -1080z m-540 -270
l0 -811 -107 3 -108 3 -3 795 c-1 437 0 801 3 808 3 8 35 12 110 12 l105 0 0
-810z m-1086 534 c3 -9 6 -315 6 -680 l0 -664 -110 0 -110 0 0 673 c0 371 3
677 7 680 3 4 50 7 104 7 79 0 98 -3 103 -16z m-544 -839 l0 -505 -105 0 -105
0 0 505 0 505 105 0 105 0 0 -505z m1090 -140 l0 -365 -110 0 -110 0 0 365 0
365 110 0 110 0 0 -365z"/>
<path d="M2845 3226 c-94 -23 -176 -46 -183 -50 -26 -16 -11 -51 45 -108 l58
-58 -180 -180 -180 -179 -42 11 c-115 32 -227 -82 -193 -196 l12 -39 -152
-152 -152 -152 -68 5 c-58 4 -74 1 -103 -17 l-35 -21 -126 72 -126 73 0 43 c0
145 -168 212 -270 107 -29 -30 -34 -43 -38 -93 l-4 -57 -150 -87 -150 -86 -36
21 c-82 49 -194 11 -227 -77 -41 -107 32 -216 145 -216 84 0 147 61 158 151
l7 53 144 84 145 84 42 -21 c52 -27 106 -27 159 0 l41 21 120 -70 119 -69 6
-51 c7 -57 29 -98 67 -127 21 -15 43 -20 94 -20 63 0 69 2 103 35 46 45 63 97
47 153 l-11 42 158 159 c143 143 160 157 179 147 87 -46 212 41 212 148 0 25
-5 53 -10 61 -7 12 30 55 172 197 l182 182 62 -59 c34 -33 66 -60 71 -60 29 0
44 37 86 215 48 204 48 226 -1 224 -15 -1 -104 -20 -197 -43z m141 -68 c-3 -7
-14 -55 -26 -106 l-23 -94 -78 78 c-44 43 -79 81 -79 85 0 6 161 47 192 48 10
1 16 -5 14 -11z m-603 -599 c25 -30 22 -75 -8 -104 -49 -49 -125 -16 -125 55
0 73 86 105 133 49z m-1060 -231 c26 -31 22 -82 -9 -107 -15 -12 -37 -21 -49
-21 -12 0 -34 9 -49 21 -28 22 -35 64 -15 100 22 42 89 46 122 7z m522 -298
c27 -30 25 -88 -4 -111 -73 -59 -168 31 -111 104 27 34 87 38 115 7z m-1095
-37 c57 -72 -39 -162 -111 -104 -29 23 -31 81 -4 111 28 31 88 27 115 -7z"/>
</g>
</svg>
