<?xml version="1.0" standalone="no"?>
<!DOCTYPE svg PUBLIC "-//W3C//DTD SVG 20010904//EN"
 "http://www.w3.org/TR/2001/REC-SVG-20010904/DTD/svg10.dtd">
<svg version="1.0" xmlns="http://www.w3.org/2000/svg"
 width="260.000000pt" height="245.000000pt" viewBox="0 0 260.000000 245.000000"
 preserveAspectRatio="xMidYMid meet">

<g transform="translate(0.000000,245.000000) scale(0.100000,-0.100000)"
fill="#000000" stroke="none">
<path d="M624 1938 c-43 -20 -44 -38 -44 -534 l0 -475 25 -24 24 -25 356 0
c195 0 355 3 355 8 0 4 -7 18 -16 30 -15 22 -15 22 -350 22 l-334 0 0 355 0
355 660 0 660 0 0 -354 c0 -305 -2 -355 -15 -360 -12 -4 -13 -10 -3 -31 14
-31 23 -31 53 0 l25 24 0 481 0 482 -29 29 -29 29 -659 -1 c-431 0 -665 -4
-679 -11z m1334 -140 l3 -88 -661 0 -660 0 0 83 c0 46 3 87 7 90 3 4 299 6
657 5 l651 -3 3 -87z"/>
<path d="M1536 1824 c-9 -8 -16 -22 -16 -29 0 -17 27 -45 44 -45 15 0 46 32
46 48 0 11 -38 42 -52 42 -3 0 -14 -7 -22 -16z"/>
<path d="M1666 1821 c-21 -23 -14 -57 13 -66 45 -14 76 32 45 66 -9 10 -22 19
-29 19 -7 0 -20 -9 -29 -19z"/>
<path d="M1796 1818 c-27 -38 12 -81 53 -58 25 13 27 42 5 64 -21 22 -40 20
-58 -6z"/>
<path d="M1280 1220 c-34 -34 -25 -75 59 -258 44 -95 78 -172 76 -172 -3 0
-24 10 -48 21 -30 15 -53 20 -71 15 -62 -15 -85 -79 -46 -129 29 -36 190 -150
276 -194 66 -34 77 -44 104 -95 17 -32 34 -58 38 -58 4 0 78 32 165 72 111 51
157 77 157 89 0 9 -9 38 -21 64 -18 40 -19 51 -8 76 22 54 6 138 -49 252 -27
57 -60 111 -73 121 -27 18 -70 21 -86 5 -7 -7 -21 -5 -47 7 -31 15 -41 16 -72
5 -27 -10 -38 -10 -50 0 -9 7 -30 10 -58 6 l-43 -6 -37 82 c-21 45 -45 90 -53
100 -23 24 -87 23 -113 -3z m149 -167 c51 -112 69 -143 84 -143 16 0 18 5 13
28 -12 49 -11 54 6 65 22 14 53 -12 68 -58 12 -37 38 -53 47 -29 3 8 1 26 -5
38 -13 30 -1 49 29 44 17 -2 32 -17 49 -50 25 -48 46 -60 56 -34 3 8 0 24 -6
36 -10 18 -9 25 3 38 27 26 47 5 97 -100 59 -123 69 -172 46 -227 -15 -38 -14
-43 5 -87 11 -26 16 -51 12 -55 -4 -4 -62 -32 -128 -61 l-121 -55 -26 47 c-23
41 -39 54 -112 93 -101 54 -252 161 -268 190 -9 17 -7 24 11 38 21 17 24 17
64 0 23 -10 56 -27 74 -37 24 -14 35 -16 44 -7 15 15 3 50 -92 256 -44 93 -79
175 -79 181 0 19 23 37 44 34 15 -2 37 -40 85 -145z"/>
</g>
</svg>
