<?xml version="1.0" standalone="no"?>
<!DOCTYPE svg PUBLIC "-//W3C//DTD SVG 20010904//EN"
 "http://www.w3.org/TR/2001/REC-SVG-20010904/DTD/svg10.dtd">
<svg version="1.0" xmlns="http://www.w3.org/2000/svg"
 width="512.000000pt" height="512.000000pt" viewBox="0 0 512.000000 512.000000"
 preserveAspectRatio="xMidYMid meet">

<g transform="translate(0.000000,512.000000) scale(0.100000,-0.100000)"
fill="#000000" stroke="none">
<path d="M623 4811 c-165 -47 -304 -190 -348 -356 -13 -52 -15 -250 -15 -1620
0 -1268 3 -1569 14 -1610 48 -183 195 -327 377 -370 54 -12 180 -15 807 -15
l742 0 0 -63 c0 -62 13 -96 50 -124 40 -31 60 -25 242 62 99 48 181 85 183 83
1 -1 57 -111 123 -243 127 -255 135 -265 203 -265 39 0 495 231 526 266 35 38
29 82 -22 184 -25 49 -45 92 -45 95 0 3 213 5 473 5 386 0 484 3 536 15 182
43 329 187 377 370 11 41 14 342 14 1610 0 1707 3 1615 -58 1729 -34 65 -143
174 -208 208 -115 62 9 58 -2039 57 -1758 0 -1874 -1 -1932 -18z m3848 -207
c67 -31 124 -87 156 -152 l28 -57 3 -292 3 -293 -2100 0 -2101 0 0 273 c0 301
6 340 59 414 39 54 91 93 154 115 49 17 146 17 1902 15 l1850 -2 46 -21z m189
-2147 c0 -1275 4 -1202 -70 -1296 -28 -35 -58 -59 -107 -83 l-68 -33 -530 0
-530 0 -22 41 -22 40 170 84 c94 47 180 95 190 109 22 27 25 89 7 114 -7 9
-309 239 -672 511 -601 453 -662 496 -697 496 -26 0 -47 -8 -66 -24 l-28 -24
-5 -674 -5 -673 -750 0 -750 0 -55 26 c-77 36 -124 80 -157 147 l-28 57 -3
1163 -2 1162 2100 0 2100 0 0 -1143z m-1756 -700 l484 -363 -130 -65 c-72 -35
-144 -76 -159 -91 -50 -45 -43 -71 91 -338 l120 -240 -137 -65 c-75 -36 -137
-64 -138 -63 -1 2 -55 108 -120 237 -122 241 -145 271 -201 271 -12 0 -75 -26
-140 -59 -66 -32 -129 -61 -142 -65 l-22 -7 0 605 c0 333 2 606 5 606 3 0 223
-163 489 -363z"/>
<path d="M825 4309 c-93 -54 -61 -189 45 -189 124 0 138 182 15 196 -22 2 -49
-1 -60 -7z"/>
<path d="M1331 4306 c-48 -27 -63 -84 -36 -136 47 -91 185 -53 185 50 0 78
-80 124 -149 86z"/>
<path d="M1832 4295 c-73 -61 -33 -175 60 -175 57 0 103 44 103 100 0 35 -6
47 -33 71 -42 37 -89 39 -130 4z"/>
<path d="M2601 3102 c-38 -37 -106 -239 -97 -286 12 -61 74 -95 131 -72 43 18
56 39 100 166 27 77 35 114 30 139 -15 78 -109 109 -164 53z"/>
<path d="M1922 3055 c-52 -44 -51 -72 9 -195 64 -133 93 -165 151 -164 34 1
48 8 70 33 17 20 28 43 28 61 0 37 -104 248 -133 272 -33 26 -90 23 -125 -7z"/>
<path d="M3040 2625 c-58 -30 -113 -64 -122 -76 -48 -58 1 -159 76 -159 39 0
223 86 263 122 42 39 39 103 -8 147 -39 36 -90 28 -209 -34z"/>
<path d="M1473 2542 c-47 -37 -52 -111 -10 -149 12 -11 76 -39 141 -62 105
-37 123 -40 152 -31 72 24 96 102 49 158 -20 23 -51 39 -133 66 -119 40 -166
44 -199 18z"/>
<path d="M1629 1915 c-59 -30 -116 -66 -128 -81 -41 -52 -20 -123 44 -150 41
-17 62 -11 192 55 130 65 159 110 116 181 -38 66 -88 64 -224 -5z"/>
</g>
</svg>
